#define bulb_icon_width 41
#define bulb_icon_height 44
const unsigned char bulb_icon_bits[] = {
   0x00, 0x00, 0x18, 0x00, 0x00, 0x00, 0x00, 0x00, 0x18, 0x00, 0x00, 0x00,
   0x00, 0x00, 0x18, 0x00, 0x00, 0x00, 0x00, 0x00, 0x18, 0x00, 0x00, 0x00,
   0x00, 0x00, 0x18, 0x00, 0x00, 0x00, 0x00, 0x00, 0x18, 0x00, 0x00, 0x00,
   0x40, 0x00, 0x18, 0x00, 0x04, 0x00, 0xe0, 0x00, 0x00, 0x00, 0x0e, 0x00,
   0xc0, 0x01, 0x00, 0x00, 0x07, 0x00, 0x80, 0x03, 0x3c, 0x80, 0x03, 0x00,
   0x00, 0x87, 0xff, 0xc1, 0x01, 0x00, 0x00, 0xce, 0xc7, 0xe7, 0x00, 0x00,
   0x00, 0xe0, 0x00, 0x0e, 0x00, 0x00, 0x00, 0x70, 0x00, 0x1c, 0x00, 0x00,
   0x00, 0x38, 0x00, 0x18, 0x00, 0x00, 0x00, 0x18, 0x00, 0x30, 0x00, 0x00,
   0x00, 0x1c, 0x00, 0x30, 0x00, 0x00, 0x00, 0x8c, 0x01, 0x73, 0x00, 0x00,
   0x00, 0x8c, 0x83, 0x63, 0x00, 0x00, 0x00, 0x0c, 0xc7, 0x61, 0x00, 0x00,
   0xff, 0x0c, 0xee, 0x60, 0xfe, 0x01, 0xff, 0x0c, 0x7c, 0x60, 0xfe, 0x01,
   0x00, 0x0c, 0x38, 0x30, 0x00, 0x00, 0x00, 0x18, 0x38, 0x30, 0x00, 0x00,
   0x00, 0x18, 0x38, 0x38, 0x00, 0x00, 0x00, 0x30, 0x38, 0x1c, 0x00, 0x00,
   0x00, 0x70, 0x38, 0x0c, 0x00, 0x00, 0x00, 0xe0, 0x38, 0x0e, 0x00, 0x00,
   0x00, 0xc0, 0x38, 0x06, 0x00, 0x00, 0x00, 0x00, 0x00, 0x00, 0x00, 0x00,
   0x00, 0xcc, 0xff, 0x67, 0x00, 0x00, 0x00, 0xce, 0xff, 0xe7, 0x00, 0x00,
   0x00, 0x07, 0x00, 0xc0, 0x01, 0x00, 0x80, 0xc3, 0xff, 0x87, 0x03, 0x00,
   0xc0, 0xc1, 0xff, 0x07, 0x07, 0x00, 0xc0, 0x00, 0x00, 0x00, 0x06, 0x00,
   0x00, 0xc0, 0xff, 0x07, 0x00, 0x00, 0x00, 0xc0, 0xff, 0x07, 0x00, 0x00,
   0x00, 0x00, 0x00, 0x00, 0x00, 0x00, 0x00, 0x00, 0xff, 0x01, 0x00, 0x00,
   0x00, 0x00, 0xff, 0x01, 0x00, 0x00, 0x00, 0x00, 0xff, 0x01, 0x00, 0x00,
   0x00, 0x00, 0xfe, 0x00, 0x00, 0x00, 0x00, 0x00, 0x7c, 0x00, 0x00, 0x00 };
